<?xml version="1.0" standalone="no"?>
<!DOCTYPE svg PUBLIC "-//W3C//DTD SVG 20010904//EN"
 "http://www.w3.org/TR/2001/REC-SVG-20010904/DTD/svg10.dtd">
<svg version="1.0" xmlns="http://www.w3.org/2000/svg"
 width="256.000000pt" height="256.000000pt" viewBox="0 0 256.000000 256.000000"
 preserveAspectRatio="xMidYMid meet">
<metadata>
Created by potrace 1.11, written by Peter Selinger 2001-2013
</metadata>
<g transform="translate(0.000000,256.000000) scale(0.100000,-0.100000)"
fill="#000000" stroke="none">
<path d="M350 2526 c-245 -55 -397 -301 -335 -541 22 -84 60 -147 126 -210
l58 -55 -29 -15 c-78 -40 -79 -179 -2 -219 15 -7 51 -17 79 -21 226 -30 227
-339 2 -369 -29 -4 -65 -14 -80 -22 -79 -40 -78 -178 2 -219 l30 -16 -37 -30
c-129 -102 -191 -289 -150 -449 43 -167 183 -298 352 -329 38 -7 375 -11 1016
-11 792 0 964 2 992 14 81 34 104 134 45 200 -21 24 -42 37 -67 41 -92 15
-122 28 -161 70 -62 67 -67 149 -16 227 28 42 90 77 138 78 118 1 181 129 106
215 -17 19 -38 35 -46 35 -8 0 12 26 44 58 189 181 190 460 1 644 -32 32 -52
58 -44 58 8 0 28 16 45 35 75 86 12 214 -106 215 -48 1 -110 36 -138 78 -51
78 -46 160 16 227 39 42 69 55 161 70 56 9 98 62 98 124 0 34 -6 56 -22 76
-37 48 -72 55 -253 55 -153 0 -166 -1 -182 -20 -10 -11 -30 -20 -45 -20 -16 0
-37 9 -48 20 -20 20 -33 20 -757 19 -547 0 -752 -4 -793 -13z m1766 -279 c-36
-47 -47 -84 -47 -153 0 -66 19 -125 53 -161 l21 -23 -548 0 c-528 0 -550 1
-590 20 -50 24 -81 64 -97 124 -21 81 24 170 107 207 37 17 78 19 583 19 l543
0 -25 -33z m-581 -608 c121 -22 215 -95 269 -209 27 -57 31 -76 31 -150 0 -74
-4 -93 -31 -150 -55 -117 -152 -189 -281 -210 -32 -6 -334 -10 -680 -10 -610
0 -623 0 -643 20 -25 25 -25 45 0 70 19 19 33 20 239 20 229 0 250 4 235 44
-10 27 -48 36 -149 36 l-94 0 30 56 c41 79 41 169 0 248 l-30 56 547 0 c618 0
588 4 647 -79 25 -35 30 -52 29 -99 0 -68 -20 -110 -71 -149 l-36 -28 -388 -5
c-270 -3 -391 -8 -399 -16 -7 -7 -10 -22 -8 -35 l3 -24 388 -3 c429 -3 428 -3
505 63 114 96 114 294 0 390 -80 68 -44 65 -770 65 -645 0 -658 0 -678 20 -11
11 -20 27 -20 35 0 8 9 24 20 35 20 20 33 20 648 20 411 0 649 -4 687 -11z
m-764 -861 c-172 -173 -172 -445 0 -621 l56 -59 -236 4 c-231 3 -237 4 -293
30 -209 98 -283 349 -157 537 43 65 121 124 190 146 31 10 108 14 268 14 l225
1 -53 -52z m1603 20 c8 -22 6 -32 -9 -48 -18 -20 -28 -20 -660 -20 -740 0
-714 3 -799 -83 -58 -58 -76 -104 -76 -189 0 -99 59 -185 160 -232 44 -20 62
-21 710 -26 l665 -5 9 -27 c8 -22 6 -32 -9 -48 -18 -20 -23 -21 -694 -18
l-676 3 -57 27 c-79 37 -142 98 -181 177 -29 59 -32 74 -32 156 0 118 31 191
116 270 108 99 62 94 844 92 l680 -2 9 -27z m-252 -171 c-56 -60 -71 -189 -31
-269 12 -24 28 -51 37 -60 14 -17 -12 -18 -527 -18 -584 0 -582 0 -640 53 -30
28 -60 93 -61 130 0 63 55 146 115 173 24 10 143 13 579 14 l549 0 -21 -23z"/>
</g>
</svg>
